# xmcd
#
# Track frame offsets:
#       150
#       16748
#       33698
#       45158
#       60911
#       72293
#       83153
#       93895
#       104995
#       115524
#       128775
#       141903
#       154729
#       167024
#       184919
#       201336
#       215860
#       238333
#       259472
#       276775
#       281217
#       286744
#       292596
#       298876
#
# Disc length: 4043 seconds
#
# Revision: 0
# Processed by: cddbd v1.5.2PL0 Copyright (c) Steve Scherf et al.
# Submitted via: WaveLab 4.01
#
DISCID=720fc918
DTITLE=Sean O´Brien - Dance Each Moment
DYEAR=2005
DGENRE=Irish Dance
TTITLE0=Titel 01
TTITLE1=Titel 02
TTITLE2=Titel 03
TTITLE3=Titel 04
TTITLE4=Titel 05
TTITLE5=Titel 06
TTITLE6=Titel 07
TTITLE7=Titel 08
TTITLE8=Titel 09
TTITLE9=Titel 10
TTITLE10=Titel 11
TTITLE11=Titel 12
TTITLE12=Titel 13
TTITLE13=Titel 14
TTITLE14=Titel 15
TTITLE15=Titel 16
TTITLE16=Titel 17
TTITLE17=Titel 18
TTITLE18=Titel 19
TTITLE19=Titel 20
TTITLE20=Titel 21
TTITLE21=Titel 22
TTITLE22=Titel 23
TTITLE23=Titel 24
EXTD=
EXTT0=
EXTT1=
EXTT2=
EXTT3=
EXTT4=
EXTT5=
EXTT6=
EXTT7=
EXTT8=
EXTT9=
EXTT10=
EXTT11=
EXTT12=
EXTT13=
EXTT14=
EXTT15=
EXTT16=
EXTT17=
EXTT18=
EXTT19=
EXTT20=
EXTT21=
EXTT22=
EXTT23=
PLAYORDER=
